<svg width="22" height="24" viewBox="0 0 22 24" fill="none" xmlns="http://www.w3.org/2000/svg">
<path d="M12.483 2.6793e-07C12.3019 0.00601253 12.1237 0.0478085 11.9587 0.122981C11.7938 0.198153 11.6454 0.305215 11.522 0.438L6.11601 6.226L2.26201 10.352C1.70071 10.9497 1.28672 11.6701 1.05301 12.456C1.00292 12.6248 0.961204 12.796 0.928006 12.969C0.77817 13.7516 0.799319 14.5573 0.990006 15.331C1.07476 15.68 1.19159 16.0205 1.33901 16.348C1.64472 17.0285 2.07591 17.6452 2.61001 18.166L6.88701 22.359L6.92601 22.397C9.17401 24.562 12.778 24.53 14.989 22.323L17.385 19.931C17.925 19.391 17.925 18.517 17.388 17.976C17.2602 17.8475 17.1083 17.7455 16.941 17.6758C16.7737 17.6061 16.5944 17.5701 16.4131 17.5698C16.2319 17.5695 16.0524 17.605 15.8849 17.6742C15.7174 17.7434 15.5652 17.8449 15.437 17.973L13.041 20.365C12.4824 20.9164 11.7311 21.2286 10.9462 21.2357C10.1613 21.2428 9.40452 20.9442 8.83601 20.403L8.81601 20.384L4.54001 16.191C3.88801 15.551 3.56801 14.722 3.59201 13.928C3.59677 13.7519 3.61887 13.5767 3.65801 13.405C3.75852 12.9694 3.97201 12.5679 4.27701 12.241L8.13001 8.114C9.18801 6.98 11.334 6.844 12.56 7.836L16.061 10.667C16.654 11.147 17.522 11.054 18.001 10.46C18.2306 10.1747 18.3378 9.80993 18.299 9.44573C18.2602 9.08153 18.0786 8.74757 17.794 8.517L14.294 5.686C13.494 5.039 12.528 4.641 11.52 4.484L13.535 2.326C13.7207 2.12628 13.8433 1.87614 13.8874 1.60697C13.9314 1.33781 13.895 1.06164 13.7826 0.81313C13.6702 0.564623 13.4869 0.354865 13.2557 0.210198C13.0244 0.0655302 12.7556 -0.00759678 12.483 2.6793e-07ZM9.61701 12.815C9.43561 12.815 9.256 12.8508 9.08844 12.9202C8.92088 12.9897 8.76866 13.0915 8.64049 13.2199C8.51232 13.3483 8.41071 13.5006 8.34148 13.6683C8.27224 13.8359 8.23674 14.0156 8.23701 14.197C8.23674 14.3784 8.27224 14.5581 8.34148 14.7257C8.41071 14.8934 8.51232 15.0457 8.64049 15.1741C8.76866 15.3025 8.92088 15.4043 9.08844 15.4738C9.256 15.5432 9.43561 15.579 9.61701 15.579H19.79C19.9714 15.579 20.151 15.5432 20.3186 15.4738C20.4861 15.4043 20.6384 15.3025 20.7665 15.1741C20.8947 15.0457 20.9963 14.8934 21.0655 14.7257C21.1348 14.5581 21.1703 14.3784 21.17 14.197C21.1703 14.0156 21.1348 13.8359 21.0655 13.6683C20.9963 13.5006 20.8947 13.3483 20.7665 13.2199C20.6384 13.0915 20.4861 12.9897 20.3186 12.9202C20.151 12.8508 19.9714 12.815 19.79 12.815H9.61701Z" fill="#A1A1A1"/>
</svg>
